<svg width="8" height="13" viewBox="0 0 8 13" fill="none" xmlns="http://www.w3.org/2000/svg">
<path d="M0.148918 6.85674L6.19387 12.853C6.39192 13.0493 6.71258 13.049 6.9103 12.852C7.10788 12.655 7.10737 12.3358 6.90928 12.1393L1.22415 6.49998L6.90949 0.860639C7.10754 0.664116 7.10806 0.345185 6.91051 0.148155C6.81139 0.049386 6.68154 9.20907e-07 6.55169 9.09616e-07C6.42217 8.98353e-07 6.29283 0.049055 6.1939 0.147139L0.148918 6.14324C0.0535279 6.23764 -3.70629e-07 6.36612 -3.82394e-07 6.49998C-3.94159e-07 6.63383 0.053681 6.76216 0.148918 6.85674Z" fill="#1D1D1D"/>
</svg>
