<svg width="31" height="31" viewBox="0 0 31 31" fill="none" xmlns="http://www.w3.org/2000/svg">
<path d="M14.188 31C11.5183 31 9.3443 28.8274 9.3443 26.1562C9.3443 25.6215 9.7783 25.1875 10.313 25.1875C10.8478 25.1875 11.2818 25.6215 11.2818 26.1562C11.2818 27.7593 12.5864 29.0625 14.188 29.0625C15.7897 29.0625 17.0943 27.7593 17.0943 26.1562C17.0943 25.6215 17.5283 25.1875 18.063 25.1875C18.5978 25.1875 19.0318 25.6215 19.0318 26.1562C19.0318 28.8274 16.858 31 14.188 31Z" fill="#606060"/>
<path d="M24.8443 27.125H3.53182C2.28541 27.125 1.27148 26.1111 1.27148 24.8647C1.27148 24.2031 1.55956 23.5769 2.0619 23.1466C2.09431 23.1183 2.12907 23.0925 2.16526 23.0691C4.06137 21.4144 5.14648 19.034 5.14648 16.5203V12.9166C5.14648 7.93093 9.2036 3.875 14.1881 3.875C14.3948 3.875 14.6183 3.87878 14.825 3.91379C15.3531 4.00153 15.7098 4.50152 15.6218 5.02847C15.5341 5.55541 15.0251 5.91207 14.5071 5.82409C14.4038 5.8073 14.2902 5.8125 14.1881 5.8125C10.2719 5.8125 7.08398 8.99902 7.08398 12.9166V16.5203C7.08398 19.6411 5.716 22.5939 3.33434 24.6203C3.31494 24.636 3.29815 24.6501 3.27734 24.6643C3.24257 24.7083 3.20898 24.7755 3.20898 24.8647C3.20898 25.0402 3.35633 25.1875 3.53182 25.1875H24.8443C25.0201 25.1875 25.1674 25.0402 25.1674 24.8647C25.1674 24.7741 25.1338 24.7083 25.0976 24.6643C25.0782 24.6501 25.0614 24.636 25.042 24.6203C22.659 22.5925 21.2924 19.6411 21.2924 16.5203V15.1126C21.2924 14.5778 21.7264 14.1438 22.2611 14.1438C22.7959 14.1438 23.2299 14.5778 23.2299 15.1126V16.5203C23.2299 19.0354 24.3162 21.417 26.2149 23.0731C26.2497 23.0963 26.2833 23.1209 26.3142 23.1481C26.8168 23.5769 27.1049 24.2031 27.1049 24.8647C27.1049 26.1111 26.091 27.125 24.8443 27.125Z" fill="#606060"/>
<circle cx="23.5" cy="6.5" r="5.5" fill="#FB0000"/>
</svg>
