<svg width="30" height="30" viewBox="0 0 30 30" fill="none" xmlns="http://www.w3.org/2000/svg">
<g clip-path="url(#clip0_1267_225)">
<path d="M5.51162 3.98883C4.67191 3.98883 3.98877 4.67198 3.98877 5.51168C3.98877 6.35139 4.67191 7.03453 5.51162 7.03453C6.35127 7.03453 7.03441 6.35139 7.03441 5.51168C7.03441 4.67198 6.35127 3.98883 5.51162 3.98883Z" fill="white"/>
<path d="M5.51168 0C2.47254 0 0 2.47254 0 5.51168C0 7.58637 1.17229 9.48603 3.00832 10.4231L4.78576 13.1632C4.94531 13.4092 5.21859 13.5577 5.51174 13.5577C5.80494 13.5577 6.07816 13.4092 6.23771 13.1632L8.0151 10.4231C9.85102 9.48603 11.0233 7.58637 11.0233 5.51168C11.0233 2.47254 8.55088 0 5.51168 0ZM7.065 8.95998C6.91371 9.02824 6.78533 9.13857 6.69498 9.27779L5.51174 11.1021L4.32832 9.27779C4.23803 9.13857 4.10959 9.02824 3.95836 8.95998C2.60514 8.34926 1.7308 6.99574 1.7308 5.51174C1.7308 3.42691 3.42691 1.7308 5.51174 1.7308C7.5965 1.7308 9.29262 3.42691 9.29262 5.51174C9.29256 6.99568 8.41822 8.34926 7.065 8.95998Z" fill="white"/>
<path d="M24.4884 20.4312C23.6487 20.4312 22.9656 21.1144 22.9656 21.954C22.9656 22.7937 23.6487 23.4769 24.4884 23.4769C25.3281 23.4769 26.0112 22.7937 26.0112 21.954C26.0112 21.1143 25.3281 20.4312 24.4884 20.4312Z" fill="white"/>
<path d="M24.4884 16.4423C21.4492 16.4423 18.9768 18.9148 18.9768 21.954C18.9768 24.0287 20.1491 25.9283 21.9851 26.8654L23.7625 29.6055C23.9221 29.8515 24.1953 29.9999 24.4885 29.9999C24.7817 29.9999 25.0549 29.8515 25.2145 29.6055L26.9919 26.8654C28.8278 25.9283 30.0001 24.0287 30.0001 21.954C30.0001 18.9148 27.5276 16.4423 24.4884 16.4423ZM26.0418 25.4023C25.8905 25.4707 25.7621 25.5809 25.6718 25.7201L24.4885 27.5445L23.3052 25.7203C23.2149 25.581 23.0865 25.4707 22.9352 25.4024C21.582 24.7917 20.7077 23.4382 20.7077 21.9541C20.7077 19.8694 22.4038 18.1732 24.4885 18.1732C26.5734 18.1732 28.2695 19.8693 28.2695 21.9541C28.2694 23.438 27.395 24.7915 26.0418 25.4023Z" fill="white"/>
<path d="M10.6003 11.9686C10.1953 11.8836 9.77895 11.8363 9.3624 11.8281C9.35666 11.828 9.35098 11.828 9.34524 11.828C8.8752 11.828 8.48953 12.2044 8.48039 12.6765C8.47108 13.1544 8.85088 13.5493 9.32877 13.5587C9.63727 13.5646 9.94535 13.5996 10.2445 13.6624C10.3045 13.675 10.3643 13.6811 10.4233 13.6811C10.8239 13.6811 11.1837 13.4012 11.2693 12.9934C11.3675 12.5257 11.068 12.0669 10.6003 11.9686Z" fill="white"/>
<path d="M14.6677 14.6583C14.4295 14.3184 14.158 13.9992 13.8607 13.7093C13.5183 13.3759 12.9704 13.3829 12.6369 13.7253C12.3034 14.0676 12.3105 14.6155 12.6528 14.949C12.8729 15.1635 13.074 15.3998 13.2503 15.6514C13.4186 15.8918 13.687 16.0203 13.9597 16.0203C14.1312 16.0203 14.3045 15.9695 14.4556 15.8636C14.8471 15.5893 14.9419 15.0497 14.6677 14.6583Z" fill="white"/>
<path d="M17.3435 26.8743C17.1237 26.6596 16.9229 26.4231 16.7469 26.1713C16.4731 25.7795 15.9335 25.6841 15.5418 25.9578C15.15 26.2317 15.0545 26.7712 15.3283 27.1629C15.5662 27.5032 15.8374 27.8228 16.1347 28.1129C16.303 28.2771 16.521 28.3589 16.7391 28.3589C16.964 28.3589 17.1889 28.2717 17.3585 28.098C17.6923 27.7559 17.6856 27.2081 17.3435 26.8743Z" fill="white"/>
<path d="M20.666 28.2681C20.3576 28.2618 20.0495 28.2265 19.7504 28.1634C19.2828 28.0648 18.8236 28.3638 18.7249 28.8314C18.6262 29.299 18.9253 29.7581 19.3929 29.8569C19.7977 29.9423 20.2141 29.9901 20.6304 29.9986C20.6365 29.9987 20.6425 29.9988 20.6485 29.9988C21.1182 29.9988 21.5037 29.6229 21.5134 29.1512C21.5232 28.6733 21.1439 28.2779 20.666 28.2681Z" fill="white"/>
<path d="M15.8653 23.3654V22.5388C15.8653 22.0609 15.4778 21.6735 14.9999 21.6735C14.522 21.6735 14.1345 22.061 14.1345 22.5388V23.3654C14.1345 23.4639 14.1367 23.5639 14.141 23.6624C14.1615 24.1269 14.5444 24.4898 15.0049 24.4898C15.0178 24.4898 15.0307 24.4895 15.0436 24.4889C15.5211 24.4679 15.8912 24.0638 15.8702 23.5864C15.8669 23.5131 15.8653 23.4387 15.8653 23.3654Z" fill="white"/>
<path d="M15.8586 18.1569C15.8369 17.6794 15.4308 17.3096 14.9548 17.3317C14.4773 17.3534 14.1078 17.7581 14.1296 18.2355C14.133 18.3107 14.1347 18.3865 14.1347 18.4615V19.2819C14.1347 19.7598 14.5222 20.1472 15 20.1472C15.4779 20.1472 15.8654 19.7597 15.8654 19.2819V18.4621C15.8655 18.3612 15.8632 18.2585 15.8586 18.1569Z" fill="white"/>
</g>
<defs>
<clipPath id="clip0_1267_225">
<rect width="30" height="30" fill="white"/>
</clipPath>
</defs>
</svg>
