<svg width="106" height="40" viewBox="0 0 106 40" fill="none" xmlns="http://www.w3.org/2000/svg">
<g clip-path="url(#clip0_614_631)">
<path d="M20.8566 39.4919L20.7768 38.4513C20.5188 38.4765 20.2624 38.4962 20.01 38.5108C20.281 38.8421 20.5632 39.1691 20.8566 39.4919Z" fill="#A70000"/>
<path d="M6.75488 34.6486L7.47781 33.7802C7.26082 33.6003 7.04889 33.418 6.84202 33.2333C6.79892 33.7 6.76987 34.1718 6.75488 34.6486Z" fill="#A70000"/>
<path d="M0 21.3814L1.12431 21.2597C1.09395 20.9792 1.06884 20.7012 1.04898 20.4255C0.69295 20.7307 0.343289 21.0493 0 21.3814Z" fill="#A70000"/>
<path d="M4.39722 7.16224L5.29048 7.8539C5.464 7.62951 5.63977 7.41224 5.81778 7.20207C5.34707 7.17514 4.87355 7.16187 4.39722 7.16224Z" fill="#A70000"/>
<path d="M1.0692 20.4082C4.83564 17.1877 9.31995 15.4331 13.5642 14.7195C14.2669 14.601 14.9614 14.5107 15.6476 14.4486C16.4222 14.3773 17.1828 14.3403 17.9232 14.3364C18.6395 14.0996 19.3957 14.0064 20.1482 14.0624C20.9007 14.1183 21.6347 14.3222 22.308 14.6623C21.7368 14.1114 21.123 13.5701 20.4697 13.0462C19.934 12.6159 19.3713 12.1969 18.7833 11.7941C15.2394 9.35903 10.7939 7.50507 5.84246 7.20496H5.81604C5.63764 7.41625 5.46188 7.63353 5.28873 7.85679C2.48639 11.4469 0.285552 16.3603 -0.00170898 21.3826C0.341206 21.0505 0.691053 20.7326 1.04783 20.4289L1.0692 20.4082Z" fill="url(#paint0_linear_614_631)"/>
<path d="M17.4695 0.000610352L17.6274 1.1186C17.9074 1.07933 18.1851 1.0453 18.4606 1.0165C18.1435 0.670578 17.8131 0.331948 17.4695 0.000610352Z" fill="#A70000"/>
<path d="M5.84237 7.20495C10.7921 7.50506 15.2377 9.35902 18.7837 11.7924C19.3706 12.1952 19.9334 12.6143 20.4702 13.0445C21.1234 13.5684 21.7373 14.1103 22.3085 14.6606C23.6153 15.3233 24.6177 16.4609 25.1091 17.839C25.0833 17.0419 25.0192 16.2206 24.9152 15.3843C24.8297 14.7032 24.7179 14.0122 24.5779 13.3154C23.7273 9.10491 21.8233 4.68794 18.4796 1.03555L18.4616 1.01648C18.1862 1.0449 17.9085 1.07893 17.6285 1.11857C13.1127 1.75189 8.10673 3.75507 4.39819 7.16288C4.87603 7.16288 5.34955 7.17671 5.81876 7.20439L5.84237 7.20495Z" fill="url(#paint1_linear_614_631)"/>
<path d="M31.8528 3.92725L31.1873 4.84048C31.4155 5.00653 31.6387 5.17481 31.8568 5.34534C31.8699 4.87863 31.8686 4.40593 31.8528 3.92725Z" fill="#A70000"/>
<path d="M18.4606 1.01589L18.4786 1.03497C21.8251 4.68735 23.7263 9.10432 24.5768 13.3149C24.7179 14.0116 24.8298 14.7027 24.9141 15.3837C25.0181 16.2201 25.0828 17.0413 25.1081 17.8384C25.5824 19.1746 25.5423 20.639 24.9956 21.9474C25.5016 21.3865 25.998 20.7851 26.4775 20.1524C26.8897 19.6037 27.2896 19.0301 27.6771 18.4313C30.0011 14.8165 31.7151 10.3233 31.8573 5.37677C31.8573 5.36779 31.8573 5.35938 31.8573 5.3504C31.6392 5.17987 31.416 5.01159 31.1878 4.84554C27.5023 2.16529 22.5098 0.129023 17.4712 0.00280762C17.8137 0.331902 18.1435 0.669597 18.4606 1.01589Z" fill="url(#paint2_linear_614_631)"/>
<path d="M38.4666 17.7385C38.7927 17.418 39.1112 17.0858 39.4223 16.7417L38.3306 16.9313C38.3778 17.205 38.4201 17.4769 38.4576 17.7469L38.4666 17.7385Z" fill="#A70000"/>
<path d="M31.8569 5.34759C31.8569 5.35656 31.8569 5.36498 31.8569 5.37395C31.7147 10.3205 30.0018 14.8137 27.6767 18.4285C27.2922 19.0269 26.8923 19.6006 26.4771 20.1495C25.9975 20.7851 25.5012 21.3836 24.9952 21.9446C24.4479 23.2437 23.4395 24.2955 22.1631 24.8986C22.8641 24.8425 23.5808 24.7567 24.3083 24.6394C24.9874 24.5306 25.6741 24.3937 26.3686 24.2288C30.5544 23.2303 34.9133 21.2215 38.4487 17.7537L38.4588 17.7442C38.4214 17.4738 38.379 17.2019 38.3318 16.9285C37.5521 12.4476 35.3855 7.51737 31.853 3.92725C31.8694 4.40555 31.8708 4.879 31.8569 5.34759Z" fill="url(#paint3_linear_614_631)"/>
<path d="M6.84418 33.2092C7.30909 28.2223 9.35083 23.8019 11.9463 20.3234C12.239 19.9311 12.5388 19.551 12.8458 19.183C13.404 18.5099 13.9807 17.8805 14.5676 17.2948C14.8993 16.6022 15.3674 15.9833 15.944 15.4751C16.5206 14.9669 17.1939 14.5798 17.9237 14.3369C17.1833 14.3425 16.4227 14.3795 15.6481 14.4491C14.963 14.5119 14.2686 14.6022 13.5647 14.72C9.32048 15.4336 4.83504 17.1883 1.06972 20.4087L1.05005 20.4261C1.06954 20.7013 1.09465 20.9794 1.12538 21.2602C1.61501 25.7843 3.46057 30.8414 6.75536 34.6491C6.76998 34.1723 6.79902 33.7006 6.8425 33.2338C6.8425 33.2243 6.84362 33.2159 6.84418 33.2092Z" fill="url(#paint4_linear_614_631)"/>
<path d="M19.9161 38.3924C16.7731 34.487 15.158 29.8939 14.5976 25.5936C14.5342 25.1075 14.4842 24.6265 14.4475 24.1509C14.3834 23.324 14.3581 22.5129 14.3665 21.7242C14.1027 21.0093 13.9845 20.2492 14.019 19.4882C14.0534 18.7272 14.2398 17.9807 14.5672 17.2926C13.9803 17.8782 13.4035 18.5082 12.8453 19.1808C12.5395 19.5488 12.2397 19.9289 11.9459 20.3212C9.3504 23.7991 7.30865 28.22 6.84375 33.2069C6.84375 33.2159 6.84375 33.2243 6.84375 33.2333C7.04987 33.4173 7.26181 33.5996 7.47955 33.7802C10.9851 36.6899 15.8365 39.042 20.8588 39.4896C20.5646 39.168 20.2824 38.841 20.0122 38.5085C19.9779 38.4698 19.947 38.4311 19.9161 38.3924Z" fill="url(#paint5_linear_614_631)"/>
<path d="M34.5243 31.2587C33.0536 31.262 31.5857 31.1296 30.1395 30.8632L30.045 30.8464L29.8702 30.8122C26.7379 30.2069 23.8551 29.0238 21.3592 27.5502C20.7464 27.1878 20.1576 26.8094 19.5929 26.4148C19.2213 26.1562 18.8621 25.8791 18.5135 25.5981C18.3318 25.4571 18.1534 25.3152 17.9784 25.1723C17.1547 24.9071 16.4019 24.4591 15.7767 23.8619C15.1515 23.2646 14.6701 22.5337 14.3688 21.7241C14.3603 22.5128 14.3856 23.324 14.4497 24.1508C14.4872 24.6273 14.5372 25.1082 14.5998 25.5936C15.162 29.8939 16.7753 34.487 19.9184 38.3924C19.9493 38.4311 19.9802 38.4698 20.0122 38.5085C20.2646 38.4939 20.521 38.4743 20.779 38.449C25.8131 37.9632 31.8597 35.5068 35.9729 31.2093C35.4962 31.2407 35.0227 31.2572 34.5524 31.2587H34.5243Z" fill="url(#paint6_linear_614_631)"/>
<path d="M34.6063 31.2519H34.5545L34.55 31.2587C35.02 31.2564 35.4935 31.24 35.9706 31.2093L35.0672 30.5962C34.9158 30.8195 34.7622 31.038 34.6063 31.2519Z" fill="#A70000"/>
<path d="M38.4599 17.7593L38.4414 17.7773C34.8908 21.2322 30.5268 23.2701 26.3371 24.2535C25.6439 24.4162 24.9553 24.5503 24.2756 24.6568C23.5555 24.769 22.8461 24.852 22.1524 24.9059C20.8528 25.5128 19.3723 25.6111 18.0037 25.1813C18.1701 25.3204 18.3387 25.4594 18.5096 25.5981C18.8469 25.8599 19.1939 26.1161 19.5507 26.3666C20.1129 26.7615 20.7001 27.1421 21.3125 27.5082C23.8163 28.9998 26.7148 30.2008 29.8663 30.8122L30.0411 30.8464L30.1355 30.8633C31.5927 31.1294 33.0716 31.2596 34.5529 31.252C34.7156 31.031 34.8756 30.8051 35.033 30.5744L35.0656 30.5962L35.087 30.5659C37.6392 26.7952 39.5005 21.7438 39.4471 16.7103L39.4212 16.7389L39.4437 16.735C39.1244 17.0903 38.7965 17.4317 38.4599 17.7593Z" fill="url(#paint7_linear_614_631)"/>
<path d="M38.4667 17.7385L38.4583 17.747V17.7593C38.7955 17.4313 39.124 17.0908 39.4437 16.7378L39.4212 16.7417C39.1094 17.0861 38.7912 17.4184 38.4667 17.7385Z" fill="#A70000"/>
<path d="M38.4667 17.7385L38.4583 17.747V17.7593C38.7955 17.4313 39.124 17.0908 39.4437 16.7378L39.4212 16.7417C39.1094 17.0861 38.7912 17.4184 38.4667 17.7385Z" fill="url(#paint8_linear_614_631)"/>
<path d="M24.2756 24.6568C24.9553 24.5502 25.6439 24.4162 26.337 24.2535C30.5268 23.2701 34.8908 21.2322 38.4414 17.7772L38.4599 17.7593V17.7469L38.4498 17.7565C34.9099 21.2243 30.5538 23.2331 26.3679 24.2338C25.6746 24.3991 24.9879 24.536 24.3076 24.6445C23.5802 24.7617 22.8635 24.847 22.1625 24.9036L22.1523 24.9081C22.846 24.8509 23.5555 24.7696 24.2756 24.6568Z" fill="url(#paint9_linear_614_631)"/>
<path d="M24.2756 24.6568C24.9553 24.5502 25.6439 24.4162 26.337 24.2535C30.5268 23.2701 34.8908 21.2322 38.4414 17.7772L38.4599 17.7593V17.7469L38.4498 17.7565C34.9099 21.2243 30.5538 23.2331 26.3679 24.2338C25.6746 24.3991 24.9879 24.536 24.3076 24.6445C23.5802 24.7617 22.8635 24.847 22.1625 24.9036L22.1523 24.9081C22.846 24.8509 23.5555 24.7696 24.2756 24.6568Z" fill="url(#paint10_linear_614_631)"/>
<path d="M19.5523 26.3656C19.1944 26.1142 18.8474 25.8581 18.5112 25.597C18.8592 25.8775 19.219 26.1552 19.5906 26.4138C20.1527 26.8068 20.7415 27.1853 21.3569 27.5492C23.8511 29.0228 26.7356 30.2059 29.8679 30.8111C26.7165 30.198 23.818 28.9987 21.3141 27.5071C20.7025 27.1432 20.1152 26.7627 19.5523 26.3656Z" fill="url(#paint11_linear_614_631)"/>
<path d="M19.5523 26.3656C19.1944 26.1142 18.8474 25.8581 18.5112 25.597C18.8592 25.8775 19.219 26.1552 19.5906 26.4138C20.1527 26.8068 20.7415 27.1853 21.3569 27.5492C23.8511 29.0228 26.7356 30.2059 29.8679 30.8111C26.7165 30.198 23.818 28.9987 21.3141 27.5071C20.7025 27.1432 20.1152 26.7627 19.5523 26.3656Z" fill="url(#paint12_linear_614_631)"/>
<path d="M34.5547 31.252H34.6064C34.7627 31.0381 34.9163 30.8195 35.0674 30.5962L35.0348 30.5743C34.8774 30.8051 34.7173 31.031 34.5547 31.252Z" fill="#A70000"/>
<path d="M34.5547 31.252H34.6064C34.7627 31.0381 34.9163 30.8195 35.0674 30.5962L35.0348 30.5743C34.8774 30.8051 34.7173 31.031 34.5547 31.252Z" fill="url(#paint13_linear_614_631)"/>
<path d="M54.0349 9.0033V17.4535H62.2424V9.0033H67.2124V30.9928H62.2424V21.7931H54.0349V30.9928H49.0317V9.0033H54.0349Z" fill="#FF0000"/>
<path d="M70.252 30.9933V9.00386H76.072L80.6491 17.0626C82.0122 19.4935 83.214 22.0111 84.2469 24.599H84.3452C84.0181 21.6955 83.9203 18.7264 83.9203 15.4313V9.0033H88.4973V30.9928H83.2659L78.5579 22.51C77.2497 20.1607 75.8112 17.3223 74.7352 14.7447L74.6368 14.7778C74.7678 17.6813 74.833 20.78 74.833 24.3701V30.9933H70.252Z" fill="#FF0000"/>
<path d="M91.5043 9.0033H96.5075V26.817H102.533L106 30.9933H91.5043V9.0033Z" fill="#FF0000"/>
</g>
<defs>
<linearGradient id="paint0_linear_614_631" x1="6.68344" y1="26.4901" x2="14.4829" y2="8.63606" gradientUnits="userSpaceOnUse">
<stop stop-color="#FF0000"/>
<stop offset="0.53" stop-color="#FF0000"/>
<stop offset="0.62" stop-color="#FB0000"/>
<stop offset="0.71" stop-color="#F00000"/>
<stop offset="0.79" stop-color="#DC0000"/>
<stop offset="0.88" stop-color="#C10000"/>
<stop offset="0.97" stop-color="#9F0000"/>
<stop offset="1" stop-color="#8F0000"/>
</linearGradient>
<linearGradient id="paint1_linear_614_631" x1="-5.10785" y1="9.04208" x2="26.9681" y2="9.50347" gradientUnits="userSpaceOnUse">
<stop offset="0.39" stop-color="#FF0000"/>
<stop offset="0.64" stop-color="#FF0000"/>
<stop offset="0.69" stop-color="#F90000"/>
<stop offset="0.77" stop-color="#E90000"/>
<stop offset="0.85" stop-color="#CE0000"/>
<stop offset="0.95" stop-color="#A80000"/>
<stop offset="1" stop-color="#8F0000"/>
</linearGradient>
<linearGradient id="paint2_linear_614_631" x1="9.93494" y1="-6.45716" x2="31.295" y2="16.8668" gradientUnits="userSpaceOnUse">
<stop stop-color="#FF0000"/>
<stop offset="0.58" stop-color="#FF0000"/>
<stop offset="0.66" stop-color="#FB0000"/>
<stop offset="0.74" stop-color="#EF0000"/>
<stop offset="0.82" stop-color="#DC0000"/>
<stop offset="0.9" stop-color="#C00000"/>
<stop offset="0.97" stop-color="#9D0000"/>
<stop offset="1" stop-color="#8F0000"/>
</linearGradient>
<linearGradient id="paint3_linear_614_631" x1="25.0222" y1="-3.61032" x2="31.0598" y2="24.804" gradientUnits="userSpaceOnUse">
<stop stop-color="#FF0000"/>
<stop offset="0.7" stop-color="#FF0000"/>
<stop offset="0.75" stop-color="#FA0000"/>
<stop offset="0.81" stop-color="#EB0000"/>
<stop offset="0.88" stop-color="#D20000"/>
<stop offset="0.94" stop-color="#B00000"/>
<stop offset="1" stop-color="#8F0000"/>
</linearGradient>
<linearGradient id="paint4_linear_614_631" x1="13.2438" y1="40.0023" x2="8.88776" y2="14.0405" gradientUnits="userSpaceOnUse">
<stop stop-color="#FF0000"/>
<stop offset="0.66" stop-color="#FF0000"/>
<stop offset="0.73" stop-color="#FB0000"/>
<stop offset="0.79" stop-color="#F00000"/>
<stop offset="0.85" stop-color="#DC0000"/>
<stop offset="0.92" stop-color="#C10000"/>
<stop offset="0.98" stop-color="#9F0000"/>
<stop offset="1" stop-color="#8F0000"/>
</linearGradient>
<linearGradient id="paint5_linear_614_631" x1="28.2883" y1="35.798" x2="9.12447" y2="24.5825" gradientUnits="userSpaceOnUse">
<stop stop-color="#FF0000"/>
<stop offset="0.66" stop-color="#FF0000"/>
<stop offset="0.73" stop-color="#FB0000"/>
<stop offset="0.79" stop-color="#F00000"/>
<stop offset="0.85" stop-color="#DC0000"/>
<stop offset="0.92" stop-color="#C10000"/>
<stop offset="0.98" stop-color="#9F0000"/>
<stop offset="1" stop-color="#8F0000"/>
</linearGradient>
<linearGradient id="paint6_linear_614_631" x1="43.67" y1="27.1121" x2="14.1281" y2="30.4954" gradientUnits="userSpaceOnUse">
<stop stop-color="#FF0000"/>
<stop offset="0.66" stop-color="#FF0000"/>
<stop offset="0.73" stop-color="#FB0000"/>
<stop offset="0.79" stop-color="#F00000"/>
<stop offset="0.85" stop-color="#DC0000"/>
<stop offset="0.92" stop-color="#C10000"/>
<stop offset="0.98" stop-color="#9F0000"/>
<stop offset="1" stop-color="#8F0000"/>
</linearGradient>
<linearGradient id="paint7_linear_614_631" x1="39.5713" y1="7.53196" x2="24.4234" y2="31.2993" gradientUnits="userSpaceOnUse">
<stop stop-color="#FF0000"/>
<stop offset="0.66" stop-color="#FF0000"/>
<stop offset="0.73" stop-color="#FB0000"/>
<stop offset="0.79" stop-color="#F00000"/>
<stop offset="0.85" stop-color="#DC0000"/>
<stop offset="0.92" stop-color="#C10000"/>
<stop offset="0.98" stop-color="#9F0000"/>
<stop offset="1" stop-color="#8F0000"/>
</linearGradient>
<linearGradient id="paint8_linear_614_631" x1="43.5458" y1="10.0652" x2="28.3979" y2="33.8326" gradientUnits="userSpaceOnUse">
<stop stop-color="#FF0000"/>
<stop offset="0.66" stop-color="#FF0000"/>
<stop offset="0.73" stop-color="#FB0000"/>
<stop offset="0.79" stop-color="#F00000"/>
<stop offset="0.85" stop-color="#DC0000"/>
<stop offset="0.92" stop-color="#C10000"/>
<stop offset="0.98" stop-color="#9F0000"/>
<stop offset="1" stop-color="#8F0000"/>
</linearGradient>
<linearGradient id="paint9_linear_614_631" x1="24.9856" y1="-3.60249" x2="31.0232" y2="24.8118" gradientUnits="userSpaceOnUse">
<stop stop-color="#FF0000"/>
<stop offset="0.7" stop-color="#FF0000"/>
<stop offset="0.75" stop-color="#FA0000"/>
<stop offset="0.81" stop-color="#EB0000"/>
<stop offset="0.88" stop-color="#D20000"/>
<stop offset="0.94" stop-color="#B00000"/>
<stop offset="1" stop-color="#8F0000"/>
</linearGradient>
<linearGradient id="paint10_linear_614_631" x1="39.2643" y1="7.33672" x2="24.1165" y2="31.1035" gradientUnits="userSpaceOnUse">
<stop stop-color="#FF0000"/>
<stop offset="0.66" stop-color="#FF0000"/>
<stop offset="0.73" stop-color="#FB0000"/>
<stop offset="0.79" stop-color="#F00000"/>
<stop offset="0.85" stop-color="#DC0000"/>
<stop offset="0.92" stop-color="#C10000"/>
<stop offset="0.98" stop-color="#9F0000"/>
<stop offset="1" stop-color="#8F0000"/>
</linearGradient>
<linearGradient id="paint11_linear_614_631" x1="43.5423" y1="25.9981" x2="14.0004" y2="29.3815" gradientUnits="userSpaceOnUse">
<stop stop-color="#FF0000"/>
<stop offset="0.66" stop-color="#FF0000"/>
<stop offset="0.73" stop-color="#FB0000"/>
<stop offset="0.79" stop-color="#F00000"/>
<stop offset="0.85" stop-color="#DC0000"/>
<stop offset="0.92" stop-color="#C10000"/>
<stop offset="0.98" stop-color="#9F0000"/>
<stop offset="1" stop-color="#8F0000"/>
</linearGradient>
<linearGradient id="paint12_linear_614_631" x1="38.0444" y1="6.55931" x2="22.8966" y2="30.3261" gradientUnits="userSpaceOnUse">
<stop stop-color="#FF0000"/>
<stop offset="0.66" stop-color="#FF0000"/>
<stop offset="0.73" stop-color="#FB0000"/>
<stop offset="0.79" stop-color="#F00000"/>
<stop offset="0.85" stop-color="#DC0000"/>
<stop offset="0.92" stop-color="#C10000"/>
<stop offset="0.98" stop-color="#9F0000"/>
<stop offset="1" stop-color="#8F0000"/>
</linearGradient>
<linearGradient id="paint13_linear_614_631" x1="46.8248" y1="12.1554" x2="31.677" y2="35.9221" gradientUnits="userSpaceOnUse">
<stop stop-color="#FF0000"/>
<stop offset="0.66" stop-color="#FF0000"/>
<stop offset="0.73" stop-color="#FB0000"/>
<stop offset="0.79" stop-color="#F00000"/>
<stop offset="0.85" stop-color="#DC0000"/>
<stop offset="0.92" stop-color="#C10000"/>
<stop offset="0.98" stop-color="#9F0000"/>
<stop offset="1" stop-color="#8F0000"/>
</linearGradient>
<clipPath id="clip0_614_631">
<rect width="106" height="39.4902" fill="white"/>
</clipPath>
</defs>
</svg>
