<svg width="27" height="31" viewBox="0 0 27 31" fill="none" xmlns="http://www.w3.org/2000/svg">
<g clip-path="url(#clip0_1267_188)">
<path d="M24.1279 20.1016H20.0107V2.72461C20.0107 2.22304 19.6041 1.81641 19.1025 1.81641H16.3779V0.908203C16.3779 0.406633 15.9713 0 15.4697 0H4.57129C4.06972 0 3.66309 0.406633 3.66309 0.908203V1.81641H0.938477C0.436906 1.81641 0.0302734 2.22304 0.0302734 2.72461V30.0918C0.0302734 30.5934 0.436906 31 0.938477 31H19.1025C19.6041 31 20.0107 30.5934 20.0107 30.0918V25.5508H24.1279C25.6303 25.5508 26.8525 24.3285 26.8525 22.8262C26.8525 21.3238 25.6303 20.1016 24.1279 20.1016ZM15.6841 23.7344L13.8677 22.8262L15.6841 21.918H21.4033V23.7344H15.6841ZM5.47949 1.81641H14.5615V3.63281H11.8369C11.3353 3.63281 10.9287 4.03945 10.9287 4.54102C10.9287 5.0418 10.5213 5.44922 10.0205 5.44922C9.51972 5.44922 9.1123 5.0418 9.1123 4.54102C9.1123 4.03945 8.70567 3.63281 8.2041 3.63281H5.47949V1.81641ZM18.1943 29.1836H1.84668V3.63281H3.66309V4.54102C3.66309 5.04259 4.06972 5.44922 4.57129 5.44922H7.4515C7.82635 6.50643 8.83645 7.26562 10.0205 7.26562C11.2046 7.26562 12.2147 6.50643 12.5895 5.44922H15.4697C15.9713 5.44922 16.3779 5.04259 16.3779 4.54102V3.63281H18.1943V20.1016H15.4697C15.3287 20.1016 15.1897 20.1344 15.0636 20.1974L11.4308 22.0138C11.1231 22.1677 10.9287 22.4821 10.9287 22.8262C10.9287 23.1702 11.1231 23.4846 11.4308 23.6385L15.0636 25.4549C15.1897 25.518 15.3287 25.5508 15.4697 25.5508H18.1943V29.1836ZM24.1279 23.7344H23.2197V21.918H24.1279C24.6287 21.918 25.0361 22.3254 25.0361 22.8262C25.0361 23.327 24.6287 23.7344 24.1279 23.7344Z" fill="white"/>
<path d="M15.4697 12.8359H4.57129C4.06972 12.8359 3.66309 12.4293 3.66309 11.9277C3.66309 11.4262 4.06972 11.0195 4.57129 11.0195H15.4697C15.9713 11.0195 16.3779 11.4262 16.3779 11.9277C16.3779 12.4293 15.9713 12.8359 15.4697 12.8359Z" fill="white"/>
<path d="M15.4697 16.4688H4.57129C4.06972 16.4688 3.66309 16.0621 3.66309 15.5605C3.66309 15.059 4.06972 14.6523 4.57129 14.6523H15.4697C15.9713 14.6523 16.3779 15.059 16.3779 15.5605C16.3779 16.0621 15.9713 16.4688 15.4697 16.4688Z" fill="white"/>
<path d="M10.0205 20.1016H4.57129C4.06972 20.1016 3.66309 19.6949 3.66309 19.1934C3.66309 18.6918 4.06972 18.2852 4.57129 18.2852H10.0205C10.5221 18.2852 10.9287 18.6918 10.9287 19.1934C10.9287 19.6949 10.5221 20.1016 10.0205 20.1016Z" fill="white"/>
</g>
<defs>
<clipPath id="clip0_1267_188">
<rect width="27" height="31" fill="white"/>
</clipPath>
</defs>
</svg>
