<svg width="17" height="17" viewBox="0 0 17 17" fill="none" xmlns="http://www.w3.org/2000/svg">
<path d="M8.5 0C5.37545 0 2.83332 2.54213 2.83332 5.66668C2.83332 6.60467 3.06784 7.53469 3.51365 8.35958L8.19012 16.8174C8.25237 16.9301 8.37101 17 8.5 17C8.62899 17 8.74763 16.9301 8.80989 16.8174L13.4881 8.35679C13.9322 7.53469 14.1667 6.60463 14.1667 5.66664C14.1667 2.54213 11.6245 0 8.5 0ZM8.5 8.5C6.93773 8.5 5.66668 7.22895 5.66668 5.66668C5.66668 4.1044 6.93773 2.83336 8.5 2.83336C10.0623 2.83336 11.3333 4.1044 11.3333 5.66668C11.3333 7.22895 10.0623 8.5 8.5 8.5Z" fill="black"/>
</svg>
