<svg width="204" height="92" viewBox="0 0 204 92" fill="none" xmlns="http://www.w3.org/2000/svg">
<g clip-path="url(#clip0_603_14)">
<path d="M40.1391 76.0032L39.9854 74.0006C39.4889 74.0492 38.9955 74.087 38.5098 74.1151C39.0312 74.7527 39.5743 75.3821 40.1391 76.0032Z" fill="#A70000"/>
<path d="M13 66.6821L14.3913 65.011C13.9737 64.6648 13.5658 64.3139 13.1677 63.9584C13.0847 64.8566 13.0289 65.7645 13 66.6821Z" fill="#A70000"/>
<path d="M0 41.1492L2.16377 40.9149C2.10535 40.3751 2.05702 39.84 2.0188 39.3096C1.3336 39.8969 0.66067 40.5101 0 41.1492Z" fill="#A70000"/>
<path d="M8.4624 13.7841L10.1815 15.1152C10.5155 14.6834 10.8537 14.2652 11.1963 13.8607C10.2904 13.8089 9.37912 13.7834 8.4624 13.7841Z" fill="#A70000"/>
<path d="M2.05781 39.2761C9.30644 33.0782 17.9366 29.7013 26.1048 28.3281C27.4572 28.0999 28.7937 27.9261 30.1143 27.8067C31.6051 27.6695 33.0689 27.5983 34.4938 27.5907C35.8723 27.1349 37.3276 26.9557 38.7759 27.0634C40.2242 27.171 41.6368 27.5634 42.9325 28.218C41.8333 27.1578 40.6519 26.116 39.3947 25.1077C38.3637 24.2797 37.2807 23.4732 36.1491 22.6981C29.3289 18.0117 20.7733 14.4437 11.2441 13.8661H11.1932C10.8499 14.2727 10.5117 14.6909 10.1784 15.1206C4.78524 22.0298 0.549669 31.4858 -0.00317383 41.1513C0.656775 40.5122 1.33007 39.9004 2.0167 39.316L2.05781 39.2761Z" fill="url(#paint0_linear_603_14)"/>
<path d="M33.6206 0.00109863L33.9246 2.15269C34.4634 2.07712 34.9978 2.01163 35.528 1.95621C34.9178 1.29047 34.282 0.638768 33.6206 0.00109863Z" fill="#A70000"/>
<path d="M11.244 13.8661C20.7699 14.4436 29.3255 18.0116 36.15 22.6948C37.2795 23.47 38.3625 24.2764 39.3957 25.1045C40.6528 26.1128 41.8342 27.1556 42.9334 28.2147C45.4485 29.4901 47.3776 31.6793 48.3234 34.3316C48.2736 32.7975 48.1503 31.217 47.9501 29.6074C47.7857 28.2968 47.5704 26.9667 47.301 25.6259C45.6641 17.5226 41.9997 9.02201 35.5647 1.99289L35.5301 1.95618C35 2.01088 34.4655 2.07637 33.9267 2.15266C25.236 3.3715 15.6018 7.22667 8.4646 13.7851C9.3842 13.7851 10.2955 13.8117 11.1985 13.865L11.244 13.8661Z" fill="url(#paint1_linear_603_14)"/>
<path d="M61.3017 7.55811L60.0208 9.31566C60.46 9.63521 60.8895 9.95908 61.3093 10.2873C61.3345 9.38907 61.332 8.47934 61.3017 7.55811Z" fill="#A70000"/>
<path d="M35.5279 1.95509L35.5625 1.99179C42.003 9.02091 45.6619 17.5215 47.2988 25.6248C47.5703 26.9656 47.7856 28.2957 47.9479 29.6063C48.1481 31.2159 48.2725 32.7964 48.3212 34.3305C49.234 36.9021 49.1569 39.7203 48.1048 42.2384C49.0785 41.1588 50.0338 40.0015 50.9566 38.7837C51.75 37.7279 52.5196 36.6239 53.2654 35.4716C57.7379 28.5148 61.0366 19.8674 61.3103 10.3477C61.3103 10.3304 61.3103 10.3142 61.3103 10.297C60.8905 9.96878 60.461 9.64491 60.0217 9.32535C52.9289 4.16714 43.3207 0.248276 33.6238 0.00537109C34.283 0.638722 34.9177 1.28863 35.5279 1.95509Z" fill="url(#paint2_linear_603_14)"/>
<path d="M74.0301 34.1384C74.6576 33.5216 75.2707 32.8821 75.8693 32.22L73.7683 32.5849C73.8592 33.1117 73.9407 33.6349 74.0128 34.1546L74.0301 34.1384Z" fill="#A70000"/>
<path d="M61.3093 10.2916C61.3093 10.3089 61.3093 10.3251 61.3093 10.3423C61.0356 19.862 57.7391 28.5094 53.2644 35.4662C52.5244 36.6178 51.7548 37.7218 50.9557 38.7784C50.0328 40.0015 49.0775 41.1534 48.1039 42.233C47.0506 44.7331 45.1098 46.7575 42.6533 47.9181C44.0024 47.8101 45.3818 47.6449 46.7818 47.4193C48.0887 47.2099 49.4104 46.9464 50.7469 46.629C58.8026 44.7074 67.1915 40.8414 73.9955 34.1675L74.015 34.1491C73.9428 33.6288 73.8613 33.1056 73.7705 32.5794C72.2699 23.9558 68.1003 14.4674 61.3017 7.55811C61.3335 8.47862 61.336 9.38979 61.3093 10.2916Z" fill="url(#paint3_linear_603_14)"/>
<path d="M13.172 63.912C14.0667 54.3145 17.9961 45.8075 22.9911 39.113C23.5545 38.358 24.1315 37.6265 24.7222 36.9183C25.7965 35.6228 26.9065 34.4115 28.036 33.2844C28.6743 31.9514 29.5752 30.7603 30.6849 29.7823C31.7946 28.8042 33.0903 28.0593 34.4948 27.5918C33.07 27.6026 31.6062 27.6738 30.1154 27.8077C28.7969 27.9286 27.4604 28.1024 26.1059 28.3291C17.9377 29.7024 9.30532 33.0793 2.05886 39.2771L2.021 39.3106C2.0585 39.8403 2.10683 40.3754 2.16597 40.9159C3.10829 49.6227 6.66011 59.3551 13.001 66.6832C13.0292 65.7656 13.0851 64.8577 13.1687 63.9595C13.1687 63.9411 13.1709 63.9249 13.172 63.912Z" fill="url(#paint4_linear_603_14)"/>
<path d="M38.329 73.8873C32.2802 66.3713 29.172 57.5317 28.0933 49.2557C27.9714 48.3201 27.8751 47.3945 27.8045 46.4791C27.6811 44.8878 27.6324 43.3267 27.6487 41.8088C27.1409 40.4331 26.9135 38.9701 26.9798 37.5056C27.0461 36.0411 27.4048 34.6045 28.0349 33.2802C26.9054 34.4072 25.7954 35.6196 24.7211 36.914C24.1325 37.6222 23.5555 38.3538 22.9901 39.1088C17.995 45.8022 14.0656 54.3103 13.1709 63.9077C13.1709 63.925 13.1709 63.9412 13.1709 63.9585C13.5676 64.3126 13.9755 64.6634 14.3945 65.0111C21.1411 70.6108 30.4778 75.1375 40.1433 75.999C39.5772 75.38 39.034 74.7506 38.514 74.1108C38.448 74.0363 38.3885 73.9618 38.329 73.8873Z" fill="url(#paint5_linear_603_14)"/>
<path d="M66.4428 60.1583C63.6124 60.1646 60.7875 59.9098 58.0041 59.3972L57.8223 59.3648L57.4859 59.2989C51.4576 58.1341 45.9097 55.8572 41.1062 53.0212C39.9269 52.3238 38.7938 51.5954 37.7069 50.8361C36.9917 50.3384 36.3004 49.8051 35.6297 49.2643C35.2799 48.9929 34.9365 48.7198 34.5997 48.4449C33.0145 47.9345 31.5658 47.0723 30.3626 45.9228C29.1594 44.7734 28.233 43.3668 27.6529 41.8087C27.6367 43.3266 27.6854 44.8877 27.8087 46.479C27.8808 47.3959 27.9771 48.3214 28.0976 49.2556C29.1795 57.5317 32.2845 66.3712 38.3333 73.8872C38.3928 73.9617 38.4523 74.0362 38.514 74.1107C38.9997 74.0826 39.4931 74.0449 39.9897 73.9963C49.6779 73.0614 61.3147 68.3339 69.2308 60.0633C68.3134 60.1237 67.4021 60.1554 66.4969 60.1583H66.4428Z" fill="url(#paint6_linear_603_14)"/>
<path d="M66.6009 60.1453H66.5013L66.4927 60.1583C67.3971 60.154 68.3084 60.1223 69.2266 60.0633L67.488 58.8833C67.1966 59.313 66.9009 59.7336 66.6009 60.1453Z" fill="#A70000"/>
<path d="M74.0171 34.1784L73.9814 34.2129C67.1482 40.862 58.7496 44.7841 50.6863 46.6766C49.3523 46.9897 48.027 47.2477 46.719 47.4528C45.3331 47.6687 43.9678 47.8285 42.6327 47.9322C40.1317 49.1001 37.2825 49.2893 34.6484 48.4622C34.9687 48.73 35.2932 48.9973 35.6221 49.2644C36.2713 49.7682 36.9391 50.2612 37.6258 50.7434C38.7077 51.5034 39.8379 52.2357 41.0164 52.9403C45.8351 55.8109 51.4133 58.1223 57.4783 59.299L57.8148 59.3649L57.9966 59.3973C60.801 59.9095 63.6471 60.1599 66.498 60.1454C66.811 59.72 67.119 59.2853 67.4219 58.8413L67.4847 58.8834L67.5258 58.8251C72.4375 51.5682 76.0197 41.8466 75.9169 32.1595L75.8671 32.2146L75.9104 32.207C75.2959 32.8908 74.6648 33.5479 74.0171 34.1784Z" fill="url(#paint7_linear_603_14)"/>
<path d="M74.0301 34.1384L74.0139 34.1546V34.1783C74.663 33.5471 75.2952 32.8918 75.9105 32.2124L75.8672 32.22C75.2671 32.8828 74.6548 33.5223 74.0301 34.1384Z" fill="#A70000"/>
<path d="M74.0301 34.1384L74.0139 34.1546V34.1783C74.663 33.5471 75.2952 32.8918 75.9105 32.2124L75.8672 32.22C75.2671 32.8828 74.6548 33.5223 74.0301 34.1384Z" fill="url(#paint8_linear_603_14)"/>
<path d="M46.7191 47.4528C48.0271 47.2476 49.3524 46.9896 50.6864 46.6765C58.7496 44.784 67.1483 40.862 73.9815 34.2128L74.0172 34.1783V34.1545L73.9977 34.1729C67.1851 40.8468 58.8016 44.7128 50.7459 46.6388C49.4115 46.9569 48.0898 47.2203 46.7808 47.429C45.3808 47.6546 44.0014 47.8187 42.6523 47.9278L42.6328 47.9364C43.9679 47.8263 45.3332 47.6698 46.7191 47.4528Z" fill="url(#paint9_linear_603_14)"/>
<path d="M46.7191 47.4528C48.0271 47.2476 49.3524 46.9896 50.6864 46.6765C58.7496 44.784 67.1483 40.862 73.9815 34.2128L74.0172 34.1783V34.1545L73.9977 34.1729C67.1851 40.8468 58.8016 44.7128 50.7459 46.6388C49.4115 46.9569 48.0898 47.2203 46.7808 47.429C45.3808 47.6546 44.0014 47.8187 42.6523 47.9278L42.6328 47.9364C43.9679 47.8263 45.3332 47.6698 46.7191 47.4528Z" fill="url(#paint10_linear_603_14)"/>
<path d="M37.6289 50.7411C36.9401 50.2575 36.2722 49.7644 35.6252 49.2621C36.2949 49.8019 36.9873 50.3363 37.7025 50.8339C38.7843 51.5904 39.9174 52.3187 41.1017 53.019C45.9021 55.8551 51.4532 58.1319 57.4815 59.2967C51.4164 58.1168 45.8382 55.8086 41.0195 52.938C39.8424 52.2378 38.7122 51.5054 37.6289 50.7411Z" fill="url(#paint11_linear_603_14)"/>
<path d="M37.6289 50.7411C36.9401 50.2575 36.2722 49.7644 35.6252 49.2621C36.2949 49.8019 36.9873 50.3363 37.7025 50.8339C38.7843 51.5904 39.9174 52.3187 41.1017 53.019C45.9021 55.8551 51.4532 58.1319 57.4815 59.2967C51.4164 58.1168 45.8382 55.8086 41.0195 52.938C39.8424 52.2378 38.7122 51.5054 37.6289 50.7411Z" fill="url(#paint12_linear_603_14)"/>
<path d="M66.5012 60.1453H66.6008C66.9015 59.7336 67.1972 59.313 67.4879 58.8833L67.4251 58.8412C67.1222 59.2853 66.8142 59.72 66.5012 60.1453Z" fill="#A70000"/>
<path d="M66.5012 60.1453H66.6008C66.9015 59.7336 67.1972 59.313 67.4879 58.8833L67.4251 58.8412C67.1222 59.2853 66.8142 59.72 66.5012 60.1453Z" fill="url(#paint13_linear_603_14)"/>
<path d="M103.992 5V21.2627H119.787V5H129.352V47.3194H119.787V29.6143H103.992V47.3194H94.363V5H103.992Z" fill="#FF0000"/>
<path d="M135.202 47.3205V5.00108H146.403L155.211 20.5103C157.835 25.1887 160.148 30.0338 162.135 35.0144H162.325C161.695 29.4265 161.507 23.7123 161.507 17.3709V5H170.316V47.3194H160.248L151.187 30.994C148.669 26.4728 145.901 21.0101 143.83 16.0495L143.641 16.1132C143.893 21.701 144.018 27.6646 144.018 34.5739V47.3205H135.202Z" fill="#FF0000"/>
<path d="M176.103 5H185.731V39.283H197.328L204 47.3205H176.103V5Z" fill="#FF0000"/>
<path d="M98.64 60.64H105.38V63.16H98.64V60.64ZM98.88 66.4H106.5V69H95.66V55H106.24V57.6H98.88V66.4ZM112.421 69V63.28L113.161 65.24L107.001 55H110.441L115.161 62.86H113.181L117.921 55H121.101L114.941 65.24L115.661 63.28V69H112.421ZM125.3 60.64H132.04V63.16H125.3V60.64ZM125.54 66.4H133.16V69H122.32V55H132.9V57.6H125.54V66.4Z" fill="#FF0000"/>
</g>
<defs>
<linearGradient id="paint0_linear_603_14" x1="12.8626" y1="50.9808" x2="27.8728" y2="16.6203" gradientUnits="userSpaceOnUse">
<stop stop-color="#FF0000"/>
<stop offset="0.53" stop-color="#FF0000"/>
<stop offset="0.62" stop-color="#FB0000"/>
<stop offset="0.71" stop-color="#F00000"/>
<stop offset="0.79" stop-color="#DC0000"/>
<stop offset="0.88" stop-color="#C10000"/>
<stop offset="0.97" stop-color="#9F0000"/>
<stop offset="1" stop-color="#8F0000"/>
</linearGradient>
<linearGradient id="paint1_linear_603_14" x1="-9.83005" y1="17.4017" x2="51.9011" y2="18.2896" gradientUnits="userSpaceOnUse">
<stop offset="0.39" stop-color="#FF0000"/>
<stop offset="0.64" stop-color="#FF0000"/>
<stop offset="0.69" stop-color="#F90000"/>
<stop offset="0.77" stop-color="#E90000"/>
<stop offset="0.85" stop-color="#CE0000"/>
<stop offset="0.95" stop-color="#A80000"/>
<stop offset="1" stop-color="#8F0000"/>
</linearGradient>
<linearGradient id="paint2_linear_603_14" x1="19.12" y1="-12.427" x2="60.2281" y2="32.4607" gradientUnits="userSpaceOnUse">
<stop stop-color="#FF0000"/>
<stop offset="0.58" stop-color="#FF0000"/>
<stop offset="0.66" stop-color="#FB0000"/>
<stop offset="0.74" stop-color="#EF0000"/>
<stop offset="0.82" stop-color="#DC0000"/>
<stop offset="0.9" stop-color="#C00000"/>
<stop offset="0.97" stop-color="#9D0000"/>
<stop offset="1" stop-color="#8F0000"/>
</linearGradient>
<linearGradient id="paint3_linear_603_14" x1="48.1558" y1="-6.94816" x2="59.7752" y2="47.736" gradientUnits="userSpaceOnUse">
<stop stop-color="#FF0000"/>
<stop offset="0.7" stop-color="#FF0000"/>
<stop offset="0.75" stop-color="#FA0000"/>
<stop offset="0.81" stop-color="#EB0000"/>
<stop offset="0.88" stop-color="#D20000"/>
<stop offset="0.94" stop-color="#B00000"/>
<stop offset="1" stop-color="#8F0000"/>
</linearGradient>
<linearGradient id="paint4_linear_603_14" x1="25.4881" y1="76.9856" x2="17.1049" y2="27.0213" gradientUnits="userSpaceOnUse">
<stop stop-color="#FF0000"/>
<stop offset="0.66" stop-color="#FF0000"/>
<stop offset="0.73" stop-color="#FB0000"/>
<stop offset="0.79" stop-color="#F00000"/>
<stop offset="0.85" stop-color="#DC0000"/>
<stop offset="0.92" stop-color="#C10000"/>
<stop offset="0.98" stop-color="#9F0000"/>
<stop offset="1" stop-color="#8F0000"/>
</linearGradient>
<linearGradient id="paint5_linear_603_14" x1="54.4415" y1="68.8943" x2="17.5602" y2="47.3097" gradientUnits="userSpaceOnUse">
<stop stop-color="#FF0000"/>
<stop offset="0.66" stop-color="#FF0000"/>
<stop offset="0.73" stop-color="#FB0000"/>
<stop offset="0.79" stop-color="#F00000"/>
<stop offset="0.85" stop-color="#DC0000"/>
<stop offset="0.92" stop-color="#C10000"/>
<stop offset="0.98" stop-color="#9F0000"/>
<stop offset="1" stop-color="#8F0000"/>
</linearGradient>
<linearGradient id="paint6_linear_603_14" x1="84.044" y1="52.178" x2="27.1898" y2="58.6894" gradientUnits="userSpaceOnUse">
<stop stop-color="#FF0000"/>
<stop offset="0.66" stop-color="#FF0000"/>
<stop offset="0.73" stop-color="#FB0000"/>
<stop offset="0.79" stop-color="#F00000"/>
<stop offset="0.85" stop-color="#DC0000"/>
<stop offset="0.92" stop-color="#C10000"/>
<stop offset="0.98" stop-color="#9F0000"/>
<stop offset="1" stop-color="#8F0000"/>
</linearGradient>
<linearGradient id="paint7_linear_603_14" x1="76.156" y1="14.4955" x2="47.0035" y2="60.2364" gradientUnits="userSpaceOnUse">
<stop stop-color="#FF0000"/>
<stop offset="0.66" stop-color="#FF0000"/>
<stop offset="0.73" stop-color="#FB0000"/>
<stop offset="0.79" stop-color="#F00000"/>
<stop offset="0.85" stop-color="#DC0000"/>
<stop offset="0.92" stop-color="#C10000"/>
<stop offset="0.98" stop-color="#9F0000"/>
<stop offset="1" stop-color="#8F0000"/>
</linearGradient>
<linearGradient id="paint8_linear_603_14" x1="83.805" y1="19.3708" x2="54.6524" y2="65.1118" gradientUnits="userSpaceOnUse">
<stop stop-color="#FF0000"/>
<stop offset="0.66" stop-color="#FF0000"/>
<stop offset="0.73" stop-color="#FB0000"/>
<stop offset="0.79" stop-color="#F00000"/>
<stop offset="0.85" stop-color="#DC0000"/>
<stop offset="0.92" stop-color="#C10000"/>
<stop offset="0.98" stop-color="#9F0000"/>
<stop offset="1" stop-color="#8F0000"/>
</linearGradient>
<linearGradient id="paint9_linear_603_14" x1="48.0855" y1="-6.93306" x2="59.705" y2="47.7511" gradientUnits="userSpaceOnUse">
<stop stop-color="#FF0000"/>
<stop offset="0.7" stop-color="#FF0000"/>
<stop offset="0.75" stop-color="#FA0000"/>
<stop offset="0.81" stop-color="#EB0000"/>
<stop offset="0.88" stop-color="#D20000"/>
<stop offset="0.94" stop-color="#B00000"/>
<stop offset="1" stop-color="#8F0000"/>
</linearGradient>
<linearGradient id="paint10_linear_603_14" x1="75.5654" y1="14.1198" x2="46.4128" y2="59.8596" gradientUnits="userSpaceOnUse">
<stop stop-color="#FF0000"/>
<stop offset="0.66" stop-color="#FF0000"/>
<stop offset="0.73" stop-color="#FB0000"/>
<stop offset="0.79" stop-color="#F00000"/>
<stop offset="0.85" stop-color="#DC0000"/>
<stop offset="0.92" stop-color="#C10000"/>
<stop offset="0.98" stop-color="#9F0000"/>
<stop offset="1" stop-color="#8F0000"/>
</linearGradient>
<linearGradient id="paint11_linear_603_14" x1="83.7983" y1="50.034" x2="26.9441" y2="56.5453" gradientUnits="userSpaceOnUse">
<stop stop-color="#FF0000"/>
<stop offset="0.66" stop-color="#FF0000"/>
<stop offset="0.73" stop-color="#FB0000"/>
<stop offset="0.79" stop-color="#F00000"/>
<stop offset="0.85" stop-color="#DC0000"/>
<stop offset="0.92" stop-color="#C10000"/>
<stop offset="0.98" stop-color="#9F0000"/>
<stop offset="1" stop-color="#8F0000"/>
</linearGradient>
<linearGradient id="paint12_linear_603_14" x1="73.2175" y1="12.6234" x2="44.0649" y2="58.3633" gradientUnits="userSpaceOnUse">
<stop stop-color="#FF0000"/>
<stop offset="0.66" stop-color="#FF0000"/>
<stop offset="0.73" stop-color="#FB0000"/>
<stop offset="0.79" stop-color="#F00000"/>
<stop offset="0.85" stop-color="#DC0000"/>
<stop offset="0.92" stop-color="#C10000"/>
<stop offset="0.98" stop-color="#9F0000"/>
<stop offset="1" stop-color="#8F0000"/>
</linearGradient>
<linearGradient id="paint13_linear_603_14" x1="90.1155" y1="23.3934" x2="60.9631" y2="69.1332" gradientUnits="userSpaceOnUse">
<stop stop-color="#FF0000"/>
<stop offset="0.66" stop-color="#FF0000"/>
<stop offset="0.73" stop-color="#FB0000"/>
<stop offset="0.79" stop-color="#F00000"/>
<stop offset="0.85" stop-color="#DC0000"/>
<stop offset="0.92" stop-color="#C10000"/>
<stop offset="0.98" stop-color="#9F0000"/>
<stop offset="1" stop-color="#8F0000"/>
</linearGradient>
<clipPath id="clip0_603_14">
<rect width="204" height="92" fill="white"/>
</clipPath>
</defs>
</svg>
