<svg width="19" height="19" viewBox="0 0 19 19" fill="none" xmlns="http://www.w3.org/2000/svg">
<path d="M18.838 18.0566L14.5209 13.7396C15.8459 12.2286 16.577 10.3168 16.577 8.2885C16.577 6.07445 15.7147 3.99316 14.1493 2.42773C12.5838 0.862306 10.5025 0 8.2885 0C6.07445 0 3.99316 0.862306 2.42773 2.42773C0.862306 3.99316 0 6.07445 0 8.2885C0 10.5025 0.862306 12.5838 2.42773 14.1493C3.99316 15.7147 6.07445 16.577 8.2885 16.577C10.3168 16.577 12.2286 15.8459 13.7396 14.5209L18.0566 18.838C18.1645 18.9459 18.3059 18.9999 18.4473 18.9999C18.5887 18.9999 18.7301 18.9459 18.838 18.838C19.0538 18.6221 19.0538 18.2725 18.838 18.0566ZM3.20909 13.3679C1.8525 12.011 1.10513 10.2071 1.10513 8.2885C1.10513 6.36989 1.8525 4.56596 3.20909 3.20909C4.56596 1.8525 6.36989 1.10513 8.2885 1.10513C10.2071 1.10513 12.011 1.8525 13.3679 3.20909C14.7245 4.56596 15.4719 6.36989 15.4719 8.2885C15.4719 10.2071 14.7245 12.011 13.3679 13.3679C12.011 14.7245 10.2071 15.4719 8.2885 15.4719C6.36989 15.4719 4.56596 14.7245 3.20909 13.3679Z" fill="#C2C2C2"/>
</svg>
