<svg width="34" height="34" viewBox="0 0 34 34" fill="none" xmlns="http://www.w3.org/2000/svg">
<g opacity="0.5">
<path d="M17.6893 33.4912L17.6216 32.6088C17.4028 32.6302 17.1854 32.6468 16.9713 32.6592C17.2011 32.9402 17.4404 33.2175 17.6893 33.4912Z" fill="#A70000"/>
<path d="M5.73004 29.3838L6.34314 28.6474C6.15911 28.4948 5.97938 28.3402 5.80394 28.1836C5.76739 28.5794 5.74275 28.9795 5.73004 29.3838Z" fill="#A70000"/>
<path d="M0.00146484 18.1322L0.954956 18.029C0.929212 17.7911 0.907917 17.5553 0.891072 17.3216C0.589134 17.5804 0.292598 17.8506 0.00146484 18.1322Z" fill="#A70000"/>
<path d="M3.73059 6.07355L4.48814 6.66013C4.63529 6.46984 4.78436 6.28557 4.93533 6.10733C4.53613 6.0845 4.13455 6.07324 3.73059 6.07355Z" fill="#A70000"/>
<path d="M0.9082 17.307C4.1024 14.5759 7.9054 13.0878 11.5048 12.4827C12.1008 12.3821 12.6897 12.3055 13.2716 12.2529C13.9286 12.1925 14.5736 12.1611 15.2015 12.1577C15.809 11.9569 16.4503 11.8779 17.0885 11.9253C17.7267 11.9728 18.3492 12.1457 18.9201 12.4341C18.4358 11.967 17.9152 11.5079 17.3612 11.0636C16.9068 10.6987 16.4296 10.3433 15.9309 10.0017C12.9255 7.9366 9.15543 6.36432 4.95625 6.1098H4.93384C4.78255 6.28899 4.63349 6.47326 4.48665 6.6626C2.11008 9.70726 0.243617 13.8742 0 18.1334C0.290815 17.8517 0.587509 17.5822 0.890083 17.3246L0.9082 17.307Z" fill="url(#paint0_linear_614_459)"/>
<path d="M14.8168 0L14.9507 0.948127C15.1882 0.914826 15.4237 0.885965 15.6573 0.861544C15.3884 0.568178 15.1082 0.280997 14.8168 0Z" fill="#A70000"/>
<path d="M4.95621 6.10975C9.15395 6.36427 12.9241 7.93655 15.9314 10.0003C16.4291 10.3418 16.9063 10.6972 17.3616 11.0621C17.9156 11.5064 18.4362 11.966 18.9206 12.4327C20.0289 12.9947 20.8789 13.9594 21.2957 15.1281C21.2738 14.4521 21.2194 13.7557 21.1312 13.0464C21.0588 12.4688 20.9639 11.8827 20.8452 11.2919C20.1239 7.72104 18.5091 3.97516 15.6734 0.877687L15.6582 0.861511C15.4246 0.885615 15.1891 0.914476 14.9517 0.948094C11.122 1.48519 6.87654 3.18402 3.73145 6.07407C4.13668 6.07407 4.53826 6.08581 4.93618 6.10928L4.95621 6.10975Z" fill="url(#paint1_linear_614_459)"/>
<path d="M27.0148 3.33014L26.4504 4.10463C26.6439 4.24544 26.8332 4.38816 27.0182 4.53278C27.0293 4.13698 27.0282 3.73609 27.0148 3.33014Z" fill="#A70000"/>
<path d="M15.6573 0.861058L15.6725 0.877233C18.5106 3.9747 20.1229 7.72059 20.8442 11.2914C20.9639 11.8823 21.0588 12.4684 21.1303 13.0459C21.2185 13.7552 21.2733 14.4517 21.2948 15.1277C21.697 16.2609 21.663 17.5028 21.1994 18.6124C21.6285 18.1367 22.0495 17.6267 22.4561 17.0901C22.8057 16.6248 23.1449 16.1383 23.4735 15.6305C25.4444 12.5649 26.898 8.75435 27.0186 4.55937C27.0186 4.55176 27.0186 4.54463 27.0186 4.53701C26.8336 4.39239 26.6443 4.24967 26.4508 4.10886C23.3252 1.83583 19.0912 0.108931 14.8182 0.00189209C15.1087 0.280986 15.3884 0.567375 15.6573 0.861058Z" fill="url(#paint2_linear_614_459)"/>
<path d="M32.6237 15.0431C32.9002 14.7713 33.1704 14.4895 33.4342 14.1977L32.5084 14.3585C32.5484 14.5906 32.5843 14.8212 32.6161 15.0502L32.6237 15.0431Z" fill="#A70000"/>
<path d="M27.0182 4.53468C27.0182 4.5423 27.0182 4.54943 27.0182 4.55704C26.8976 8.75202 25.445 12.5626 23.4732 15.6282C23.1471 16.1357 22.8079 16.6222 22.4558 17.0877C22.0491 17.6267 21.6282 18.1343 21.1991 18.6101C20.7349 19.7118 19.8797 20.6038 18.7972 21.1153C19.3917 21.0677 19.9996 20.9949 20.6165 20.8955C21.1924 20.8032 21.7748 20.6871 22.3638 20.5472C25.9136 19.7004 29.6103 17.9969 32.6086 15.0559L32.6171 15.0478C32.5854 14.8185 32.5494 14.5879 32.5094 14.3561C31.8482 10.556 30.0108 6.3748 27.0149 3.33014C27.0289 3.73578 27.03 4.13729 27.0182 4.53468Z" fill="url(#paint3_linear_614_459)"/>
<path d="M5.80579 28.1632C6.20005 23.934 7.9316 20.1852 10.1327 17.2352C10.381 16.9025 10.6352 16.5802 10.8955 16.2681C11.3689 15.6972 11.8581 15.1634 12.3558 14.6668C12.6371 14.0794 13.0341 13.5545 13.5231 13.1235C14.0121 12.6925 14.5831 12.3643 15.202 12.1583C14.5741 12.163 13.9291 12.1944 13.2721 12.2534C12.6911 12.3067 12.1022 12.3833 11.5053 12.4832C7.90585 13.0883 4.1019 14.5764 0.908654 17.3076L0.891968 17.3223C0.908495 17.5557 0.929789 17.7915 0.955852 18.0297C1.3711 21.8665 2.93625 26.1552 5.73046 29.3844C5.74285 28.98 5.76749 28.5799 5.80436 28.1841C5.80436 28.1761 5.80531 28.1689 5.80579 28.1632Z" fill="url(#paint4_linear_614_459)"/>
<path d="M16.8917 32.5589C14.2262 29.2468 12.8565 25.3516 12.3812 21.7046C12.3275 21.2923 12.285 20.8845 12.2539 20.4811C12.1995 19.7798 12.1781 19.0919 12.1852 18.4231C11.9615 17.8168 11.8613 17.1722 11.8905 16.5268C11.9197 15.8814 12.0778 15.2484 12.3554 14.6648C11.8577 15.1615 11.3686 15.6957 10.8952 16.2661C10.6358 16.5782 10.3815 16.9006 10.1324 17.2333C7.93123 20.1828 6.19969 23.932 5.80542 28.1612C5.80542 28.1688 5.80542 28.176 5.80542 28.1836C5.98023 28.3396 6.15996 28.4942 6.34462 28.6474C9.31761 31.115 13.4319 33.1098 17.6912 33.4894C17.4417 33.2166 17.2023 32.9393 16.9732 32.6573C16.9441 32.6245 16.9179 32.5917 16.8917 32.5589Z" fill="url(#paint5_linear_614_459)"/>
<path d="M29.2804 26.5091C28.0331 26.5118 26.7883 26.3996 25.5617 26.1737L25.4817 26.1594L25.3334 26.1304C22.677 25.6171 20.2322 24.6138 18.1155 23.364C17.5958 23.0567 17.0965 22.7357 16.6175 22.4011C16.3024 22.1818 15.9978 21.9468 15.7022 21.7085C15.548 21.5889 15.3967 21.4686 15.2483 21.3474C14.5498 21.1225 13.9114 20.7425 13.3812 20.236C12.851 19.7295 12.4427 19.1097 12.1871 18.4231C12.18 19.092 12.2014 19.7799 12.2558 20.4811C12.2876 20.8852 12.33 21.293 12.3831 21.7047C12.8598 25.3516 14.2281 29.2469 16.8936 32.5589C16.9198 32.5917 16.946 32.6246 16.9732 32.6574C17.1872 32.645 17.4046 32.6284 17.6235 32.607C21.8927 32.195 27.0206 30.1118 30.5089 26.4672C30.1047 26.4938 29.7031 26.5078 29.3042 26.5091H29.2804Z" fill="url(#paint6_linear_614_459)"/>
<path d="M29.3499 26.5034H29.3061L29.3022 26.5091C29.7008 26.5072 30.1024 26.4932 30.507 26.4672L29.7409 25.9472C29.6124 26.1366 29.4821 26.322 29.3499 26.5034Z" fill="#A70000"/>
<path d="M32.6181 15.0606L32.6023 15.0758C29.5912 18.0058 25.8902 19.7341 22.3371 20.5681C21.7492 20.706 21.1652 20.8197 20.5888 20.9101C19.9781 21.0053 19.3765 21.0757 18.7882 21.1214C17.686 21.636 16.4305 21.7194 15.2698 21.3549C15.4109 21.4729 15.5539 21.5907 15.6988 21.7084C15.9849 21.9304 16.2792 22.1477 16.5818 22.3602C17.0585 22.6951 17.5566 23.0178 18.0759 23.3283C20.1993 24.5932 22.6574 25.6118 25.3301 26.1303L25.4783 26.1593L25.5584 26.1736C26.7942 26.3993 28.0484 26.5097 29.3047 26.5033C29.4426 26.3158 29.5783 26.1243 29.7118 25.9286L29.7395 25.9472L29.7576 25.9215C31.922 22.7236 33.5005 18.4397 33.4552 14.171L33.4333 14.1952L33.4524 14.1919C33.1816 14.4932 32.9035 14.7827 32.6181 15.0606Z" fill="url(#paint7_linear_614_459)"/>
<path d="M32.6238 15.043L32.6166 15.0502V15.0606C32.9027 14.7825 33.1813 14.4937 33.4524 14.1943L33.4333 14.1977C33.1689 14.4898 32.899 14.7716 32.6238 15.043Z" fill="#A70000"/>
<path d="M32.6238 15.043L32.6166 15.0502V15.0606C32.9027 14.7825 33.1813 14.4937 33.4524 14.1943L33.4333 14.1977C33.1689 14.4898 32.899 14.7716 32.6238 15.043Z" fill="url(#paint8_linear_614_459)"/>
<path d="M20.5888 20.9101C21.1652 20.8197 21.7492 20.706 22.337 20.5681C25.8902 19.7341 29.5912 18.0058 32.6023 15.0758L32.6181 15.0606V15.0501L32.6095 15.0582C29.6074 17.9992 25.9131 19.7027 22.3633 20.5514C21.7753 20.6916 21.1929 20.8077 20.616 20.8997C19.9991 20.9991 19.3912 21.0714 18.7967 21.1195L18.7881 21.1233C19.3765 21.0747 19.9781 21.0058 20.5888 20.9101Z" fill="url(#paint9_linear_614_459)"/>
<path d="M20.5888 20.9101C21.1652 20.8197 21.7492 20.706 22.337 20.5681C25.8902 19.7341 29.5912 18.0058 32.6023 15.0758L32.6181 15.0606V15.0501L32.6095 15.0582C29.6074 17.9992 25.9131 19.7027 22.3633 20.5514C21.7753 20.6916 21.1929 20.8077 20.616 20.8997C19.9991 20.9991 19.3912 21.0714 18.7967 21.1195L18.7881 21.1233C19.3765 21.0747 19.9781 21.0058 20.5888 20.9101Z" fill="url(#paint10_linear_614_459)"/>
<path d="M16.5831 22.3593C16.2796 22.1461 15.9853 21.9289 15.7002 21.7075C15.9953 21.9454 16.3004 22.1809 16.6155 22.4002C17.0923 22.7335 17.5916 23.0545 18.1135 23.3631C20.2288 24.6128 22.675 25.6161 25.3314 26.1294C22.6588 25.6094 20.2007 24.5923 18.0772 23.3274C17.5585 23.0188 17.0605 22.6961 16.5831 22.3593Z" fill="url(#paint11_linear_614_459)"/>
<path d="M16.5831 22.3593C16.2796 22.1461 15.9853 21.9289 15.7002 21.7075C15.9953 21.9454 16.3004 22.1809 16.6155 22.4002C17.0923 22.7335 17.5916 23.0545 18.1135 23.3631C20.2288 24.6128 22.675 25.6161 25.3314 26.1294C22.6588 25.6094 20.2007 24.5923 18.0772 23.3274C17.5585 23.0188 17.0605 22.6961 16.5831 22.3593Z" fill="url(#paint12_linear_614_459)"/>
<path d="M29.3062 26.5033H29.35C29.4825 26.3219 29.6129 26.1365 29.7409 25.9471L29.7133 25.9286C29.5798 26.1243 29.4441 26.3158 29.3062 26.5033Z" fill="#A70000"/>
<path d="M29.3062 26.5033H29.35C29.4825 26.3219 29.6129 26.1365 29.7409 25.9471L29.7133 25.9286C29.5798 26.1243 29.4441 26.3158 29.3062 26.5033Z" fill="url(#paint13_linear_614_459)"/>
</g>
<defs>
<linearGradient id="paint0_linear_614_459" x1="5.66946" y1="22.4649" x2="12.2839" y2="7.32347" gradientUnits="userSpaceOnUse">
<stop stop-color="#FF0000"/>
<stop offset="0.53" stop-color="#FF0000"/>
<stop offset="0.62" stop-color="#FB0000"/>
<stop offset="0.71" stop-color="#F00000"/>
<stop offset="0.79" stop-color="#DC0000"/>
<stop offset="0.88" stop-color="#C10000"/>
<stop offset="0.97" stop-color="#9F0000"/>
<stop offset="1" stop-color="#8F0000"/>
</linearGradient>
<linearGradient id="paint1_linear_614_459" x1="-4.33032" y1="7.66776" x2="22.8723" y2="8.05905" gradientUnits="userSpaceOnUse">
<stop offset="0.39" stop-color="#FF0000"/>
<stop offset="0.64" stop-color="#FF0000"/>
<stop offset="0.69" stop-color="#F90000"/>
<stop offset="0.77" stop-color="#E90000"/>
<stop offset="0.85" stop-color="#CE0000"/>
<stop offset="0.95" stop-color="#A80000"/>
<stop offset="1" stop-color="#8F0000"/>
</linearGradient>
<linearGradient id="paint2_linear_614_459" x1="8.42692" y1="-5.4766" x2="26.5417" y2="14.3037" gradientUnits="userSpaceOnUse">
<stop stop-color="#FF0000"/>
<stop offset="0.58" stop-color="#FF0000"/>
<stop offset="0.66" stop-color="#FB0000"/>
<stop offset="0.74" stop-color="#EF0000"/>
<stop offset="0.82" stop-color="#DC0000"/>
<stop offset="0.9" stop-color="#C00000"/>
<stop offset="0.97" stop-color="#9D0000"/>
<stop offset="1" stop-color="#8F0000"/>
</linearGradient>
<linearGradient id="paint3_linear_614_459" x1="21.222" y1="-3.06223" x2="26.3422" y2="21.035" gradientUnits="userSpaceOnUse">
<stop stop-color="#FF0000"/>
<stop offset="0.7" stop-color="#FF0000"/>
<stop offset="0.75" stop-color="#FA0000"/>
<stop offset="0.81" stop-color="#EB0000"/>
<stop offset="0.88" stop-color="#D20000"/>
<stop offset="0.94" stop-color="#B00000"/>
<stop offset="1" stop-color="#8F0000"/>
</linearGradient>
<linearGradient id="paint4_linear_614_459" x1="11.2331" y1="33.9243" x2="7.53887" y2="11.9069" gradientUnits="userSpaceOnUse">
<stop stop-color="#FF0000"/>
<stop offset="0.66" stop-color="#FF0000"/>
<stop offset="0.73" stop-color="#FB0000"/>
<stop offset="0.79" stop-color="#F00000"/>
<stop offset="0.85" stop-color="#DC0000"/>
<stop offset="0.92" stop-color="#C10000"/>
<stop offset="0.98" stop-color="#9F0000"/>
<stop offset="1" stop-color="#8F0000"/>
</linearGradient>
<linearGradient id="paint5_linear_614_459" x1="23.9918" y1="30.3586" x2="7.73963" y2="20.8471" gradientUnits="userSpaceOnUse">
<stop stop-color="#FF0000"/>
<stop offset="0.66" stop-color="#FF0000"/>
<stop offset="0.73" stop-color="#FB0000"/>
<stop offset="0.79" stop-color="#F00000"/>
<stop offset="0.85" stop-color="#DC0000"/>
<stop offset="0.92" stop-color="#C10000"/>
<stop offset="0.98" stop-color="#9F0000"/>
<stop offset="1" stop-color="#8F0000"/>
</linearGradient>
<linearGradient id="paint6_linear_614_459" x1="37.0365" y1="22.9925" x2="11.983" y2="25.8618" gradientUnits="userSpaceOnUse">
<stop stop-color="#FF0000"/>
<stop offset="0.66" stop-color="#FF0000"/>
<stop offset="0.73" stop-color="#FB0000"/>
<stop offset="0.79" stop-color="#F00000"/>
<stop offset="0.85" stop-color="#DC0000"/>
<stop offset="0.92" stop-color="#C10000"/>
<stop offset="0.98" stop-color="#9F0000"/>
<stop offset="1" stop-color="#8F0000"/>
</linearGradient>
<linearGradient id="paint7_linear_614_459" x1="33.5606" y1="6.38708" x2="20.7142" y2="26.5434" gradientUnits="userSpaceOnUse">
<stop stop-color="#FF0000"/>
<stop offset="0.66" stop-color="#FF0000"/>
<stop offset="0.73" stop-color="#FB0000"/>
<stop offset="0.79" stop-color="#F00000"/>
<stop offset="0.85" stop-color="#DC0000"/>
<stop offset="0.92" stop-color="#C10000"/>
<stop offset="0.98" stop-color="#9F0000"/>
<stop offset="1" stop-color="#8F0000"/>
</linearGradient>
<linearGradient id="paint8_linear_614_459" x1="36.9312" y1="8.53553" x2="24.0847" y2="28.6919" gradientUnits="userSpaceOnUse">
<stop stop-color="#FF0000"/>
<stop offset="0.66" stop-color="#FF0000"/>
<stop offset="0.73" stop-color="#FB0000"/>
<stop offset="0.79" stop-color="#F00000"/>
<stop offset="0.85" stop-color="#DC0000"/>
<stop offset="0.92" stop-color="#C10000"/>
<stop offset="0.98" stop-color="#9F0000"/>
<stop offset="1" stop-color="#8F0000"/>
</linearGradient>
<linearGradient id="paint9_linear_614_459" x1="21.1909" y1="-3.05566" x2="26.3112" y2="21.0416" gradientUnits="userSpaceOnUse">
<stop stop-color="#FF0000"/>
<stop offset="0.7" stop-color="#FF0000"/>
<stop offset="0.75" stop-color="#FA0000"/>
<stop offset="0.81" stop-color="#EB0000"/>
<stop offset="0.88" stop-color="#D20000"/>
<stop offset="0.94" stop-color="#B00000"/>
<stop offset="1" stop-color="#8F0000"/>
</linearGradient>
<linearGradient id="paint10_linear_614_459" x1="33.3003" y1="6.22153" x2="20.4538" y2="26.3774" gradientUnits="userSpaceOnUse">
<stop stop-color="#FF0000"/>
<stop offset="0.66" stop-color="#FF0000"/>
<stop offset="0.73" stop-color="#FB0000"/>
<stop offset="0.79" stop-color="#F00000"/>
<stop offset="0.85" stop-color="#DC0000"/>
<stop offset="0.92" stop-color="#C10000"/>
<stop offset="0.98" stop-color="#9F0000"/>
<stop offset="1" stop-color="#8F0000"/>
</linearGradient>
<linearGradient id="paint11_linear_614_459" x1="36.9283" y1="22.0477" x2="11.8747" y2="24.917" gradientUnits="userSpaceOnUse">
<stop stop-color="#FF0000"/>
<stop offset="0.66" stop-color="#FF0000"/>
<stop offset="0.73" stop-color="#FB0000"/>
<stop offset="0.79" stop-color="#F00000"/>
<stop offset="0.85" stop-color="#DC0000"/>
<stop offset="0.92" stop-color="#C10000"/>
<stop offset="0.98" stop-color="#9F0000"/>
<stop offset="1" stop-color="#8F0000"/>
</linearGradient>
<linearGradient id="paint12_linear_614_459" x1="32.2657" y1="5.56223" x2="19.4192" y2="25.7181" gradientUnits="userSpaceOnUse">
<stop stop-color="#FF0000"/>
<stop offset="0.66" stop-color="#FF0000"/>
<stop offset="0.73" stop-color="#FB0000"/>
<stop offset="0.79" stop-color="#F00000"/>
<stop offset="0.85" stop-color="#DC0000"/>
<stop offset="0.92" stop-color="#C10000"/>
<stop offset="0.98" stop-color="#9F0000"/>
<stop offset="1" stop-color="#8F0000"/>
</linearGradient>
<linearGradient id="paint13_linear_614_459" x1="39.7121" y1="10.3081" x2="26.8657" y2="30.4639" gradientUnits="userSpaceOnUse">
<stop stop-color="#FF0000"/>
<stop offset="0.66" stop-color="#FF0000"/>
<stop offset="0.73" stop-color="#FB0000"/>
<stop offset="0.79" stop-color="#F00000"/>
<stop offset="0.85" stop-color="#DC0000"/>
<stop offset="0.92" stop-color="#C10000"/>
<stop offset="0.98" stop-color="#9F0000"/>
<stop offset="1" stop-color="#8F0000"/>
</linearGradient>
</defs>
</svg>
